HIERARCHY
ROOT Hips
{
	OFFSET 0.00000 0.00000 0.00000
	CHANNELS 6 Xposition Yposition Zposition Zrotation Yrotation Xrotation 
	JOINT LHipJoint
	{
		OFFSET 0 0 0
		CHANNELS 3 Zrotation Yrotation Xrotation
		JOINT LeftUpLeg
		{
			OFFSET 1.81638 -1.86202 0.89635
			CHANNELS 3 Zrotation Yrotation Xrotation
			JOINT LeftLeg
			{
				OFFSET 2.63464 -7.23861 0.00000
				CHANNELS 3 Zrotation Yrotation Xrotation
				JOINT LeftFoot
				{
					OFFSET 2.45871 -6.75336 0.00000
					CHANNELS 3 Zrotation Yrotation Xrotation
					JOINT LeftToeBase
					{
						OFFSET 0.34235 -0.94059 2.20020
						CHANNELS 3 Zrotation Yrotation Xrotation
						End Site
						{
							OFFSET 0.00000 -0.00000 1.18611
						}
					}
				}
			}
		}
	}
	JOINT RHipJoint
	{
		OFFSET 0 0 0
		CHANNELS 3 Zrotation Yrotation Xrotation
		JOINT RightUpLeg
		{
			OFFSET -1.84405 -1.86203 0.89635
			CHANNELS 3 Zrotation Yrotation Xrotation
			JOINT RightLeg
			{
				OFFSET -2.71067 -7.44751 0.00000
				CHANNELS 3 Zrotation Yrotation Xrotation
				JOINT RightFoot
				{
					OFFSET -2.47159 -6.79060 0.00000
					CHANNELS 3 Zrotation Yrotation Xrotation
					JOINT RightToeBase
					{
						OFFSET -0.26223 -0.72048 2.36007
						CHANNELS 3 Zrotation Yrotation Xrotation
						End Site
						{
							OFFSET -0.00000 -0.00000 1.23343
						}
					}
				}
			}
		}
	}
	JOINT LowerBack
	{
		OFFSET 0 0 0
		CHANNELS 3 Zrotation Yrotation Xrotation
		JOINT Spine
		{
			OFFSET 0.02089 1.99248 -0.22512
			CHANNELS 3 Zrotation Yrotation Xrotation
			JOINT Spine1
			{
				OFFSET 0.01476 2.01356 -0.03079
				CHANNELS 3 Zrotation Yrotation Xrotation
				JOINT Neck
				{
					OFFSET 0 0 0
					CHANNELS 3 Zrotation Yrotation Xrotation
					JOINT Neck1
					{
						OFFSET 0.04846 1.65098 0.06663
						CHANNELS 3 Zrotation Yrotation Xrotation
						JOINT Head
						{
							OFFSET -0.06061 1.60634 -0.07565
							CHANNELS 3 Zrotation Yrotation Xrotation
							End Site
							{
								OFFSET -0.02954 1.73562 -0.03642
							}
						}
					}
				}
				JOINT LeftShoulder
				{
					OFFSET 0 0 0
					CHANNELS 3 Zrotation Yrotation Xrotation
					JOINT LeftArm
					{
						OFFSET 3.45234 1.47051 -0.06993
						CHANNELS 3 Zrotation Yrotation Xrotation
						JOINT LeftForeArm
						{
							OFFSET 5.49313 -0.00000 0.00000
							CHANNELS 3 Zrotation Yrotation Xrotation
							JOINT LeftHand
							{
								OFFSET 3.29037 -0.00000 0.00000
								CHANNELS 3 Zrotation Yrotation Xrotation
								JOINT LeftFingerBase
								{
									OFFSET 0 0 0
									CHANNELS 3 Zrotation Yrotation Xrotation
									JOINT LeftHandIndex1
									{
										OFFSET 0.72966 -0.00000 0.00000
										CHANNELS 3 Zrotation Yrotation Xrotation
										End Site
										{
											OFFSET 0.58827 -0.00000 0.00000
										}
									}
								}
								JOINT LThumb
								{
									OFFSET 0 0 0
									CHANNELS 3 Zrotation Yrotation Xrotation
									End Site
									{
										OFFSET 0.59725 -0.00000 0.59725
									}
								}
							}
						}
					}
				}
				JOINT RightShoulder
				{
					OFFSET 0 0 0
					CHANNELS 3 Zrotation Yrotation Xrotation
					JOINT RightArm
					{
						OFFSET -3.41935 1.44327 0.20453
						CHANNELS 3 Zrotation Yrotation Xrotation
						JOINT RightForeArm
						{
							OFFSET -5.23684 -0.00000 0.00000
							CHANNELS 3 Zrotation Yrotation Xrotation
							JOINT RightHand
							{
								OFFSET -3.38251 -0.00000 0.00000
								CHANNELS 3 Zrotation Yrotation Xrotation
								JOINT RightFingerBase
								{
									OFFSET 0 0 0
									CHANNELS 3 Zrotation Yrotation Xrotation
									JOINT RightHandIndex1
									{
										OFFSET -0.69145 -0.00000 0.00000
										CHANNELS 3 Zrotation Yrotation Xrotation
										End Site
										{
											OFFSET -0.55747 -0.00000 0.00000
										}
									}
								}
								JOINT RThumb
								{
									OFFSET 0 0 0
									CHANNELS 3 Zrotation Yrotation Xrotation
									End Site
									{
										OFFSET -0.56598 -0.00000 0.56598
									}
								}
							}
						}
					}
				}
			}
		}
	}
}
MOTION
Frames: 14
Frame Time: .0083333
-7.1454 17.5345 -0.4251 -0.6747 92.5608 -1.1814 0.0000 0.0000 0.0000 -12.2198 -0.9521 -26.7313 6.8452 15.2001 48.2862 -1.1286 -26.7467 -11.0477 0.1259 -2.2875 -6.3009 0.0000 0.0000 0.0000 18.6280 10.9983 -19.0483 -3.2736 -11.1253 32.7035 -0.3899 2.4131 -11.2081 -0.0789 -1.8119 4.9860 1.7462 -1.3779 22.8143 2.1138 -0.7609 5.9393 1.4805 -0.1863 -6.2063 3.9826 -0.6561 -3.9856 -7.5997 -0.8723 1.0149 -3.1625 -0.5052 0.9667 0.0000 0.0000 0.0000 -73.2693 11.3035 36.3391 31.9317 -42.4926 -12.6946 -0.0000 -0.0000 8.0928 1.9610 2.6171 0.0896 -7.1250 0.0000 -0.0000 -19.6221 32.1361 6.5158 0.0000 0.0000 0.0000 73.1860 -16.0815 36.7798 -24.7137 35.9099 -8.1214 0.0000 0.0000 4.2790 -23.1831 -18.8836 7.8910 7.1250 -0.0000 -0.0000 5.0244 -50.3234 -0.6607
-7.0863 17.5552 -0.4222 -3.5705 92.2938 -3.9565 0.0000 0.0000 0.0000 -12.5983 -1.0127 -26.6907 6.4297 14.8322 46.6828 -0.9598 -26.2749 -11.8742 0.1179 -2.2137 -6.0965 0.0000 0.0000 0.0000 18.5768 11.1986 -18.7549 -3.2235 -11.0483 32.4431 -0.3967 2.3795 -11.3143 -0.0838 -1.8677 5.1403 1.6522 -1.2733 22.8013 2.0593 -0.6561 5.9137 1.4465 -0.1372 -6.2284 4.1881 -0.4941 -4.4723 -7.6902 -0.6307 1.8953 -3.2447 -0.4046 1.3533 0.0000 -0.0000 0.0000 -73.4608 11.9397 36.4840 30.8847 -41.6397 -11.9931 -0.0000 -0.0000 8.4646 0.8046 2.6695 0.0375 -7.1250 0.0000 -0.0000 -20.5198 32.1361 6.8496 0.0000 -0.0000 0.0000 73.0647 -15.7300 37.3914 -25.8248 37.0352 -8.7819 0.0000 0.0000 3.0548 -23.8656 -18.7018 8.0741 7.1250 -0.0000 -0.0000 4.3054 -50.2437 -0.5574
-7.0267 17.5743 -0.4195 -7.0773 92.0079 -7.3303 0.0000 0.0000 0.0000 -12.9520 -1.0901 -26.5959 6.0171 14.4449 45.0502 -0.7882 -25.7966 -12.7208 0.1117 -2.1547 -5.9333 0.0000 0.0000 0.0000 18.5311 11.4541 -18.4831 -3.1844 -10.9878 32.2388 -0.4070 2.3101 -11.4740 -0.0876 -1.9086 5.2531 1.5597 -1.1693 22.7513 1.9864 -0.5549 5.8967 1.3920 -0.0899 -6.2224 4.3944 -0.3185 -4.9908 -7.7407 -0.3705 2.8545 -3.3158 -0.2943 1.7781 -0.0000 0.0000 0.0000 -73.6001 12.5849 36.6654 29.9539 -40.8539 -11.3795 -0.0000 -0.0000 8.8742 -0.2209 2.7332 -0.0105 -7.1250 0.0000 -0.0000 -21.3163 32.1501 7.1426 -0.0000 0.0000 0.0000 72.9623 -15.4141 38.0147 -27.0751 38.2507 -9.5456 0.0000 0.0000 1.7072 -24.1066 -18.6199 8.1308 7.1250 -0.0000 -0.0000 4.0475 -50.1965 -0.5192
-6.9665 17.5914 -0.4173 -11.5813 91.7089 -11.6899 0.0000 0.0000 0.0000 -13.2767 -1.1900 -26.4451 5.6114 14.0409 43.4017 -0.6157 -25.3011 -13.5611 0.1082 -2.1205 -5.8388 0.0000 0.0000 0.0000 18.4925 11.7482 -18.2271 -3.1519 -10.9370 32.0676 -0.4197 2.2073 -11.6738 -0.0901 -1.9363 5.3296 1.4751 -1.0652 22.6625 1.8962 -0.4548 5.8863 1.3140 -0.0434 -6.1895 4.5991 -0.1373 -5.5185 -7.7500 -0.1033 3.8788 -3.3747 -0.1786 2.2332 0.0000 0.0000 0.0000 -73.6884 13.2349 36.8937 29.1277 -40.1339 -10.8429 -0.0000 -0.0000 9.3062 -1.0640 2.7829 -0.0517 -7.1250 0.0000 -0.0000 -21.9681 32.1576 7.3875 0.0000 0.0000 0.0000 72.8818 -15.1363 38.6350 -28.4671 39.5427 -10.4197 0.0000 0.0000 0.2517 -23.9712 -18.6461 8.0908 7.1250 -0.0000 -0.0000 4.1875 -50.2019 -0.5378
-6.9056 17.5987 -0.4163 -17.8509 91.3992 -17.8083 0.0000 0.0000 0.0000 -13.5626 -1.3221 -26.2593 5.2262 13.6341 41.7910 -0.4430 -24.7814 -14.3872 0.1061 -2.1008 -5.7843 0.0000 0.0000 0.0000 18.4562 12.0806 -18.0066 -3.1308 -10.9038 31.9562 -0.4351 2.0840 -11.9141 -0.0912 -1.9477 5.3612 1.3985 -0.9615 22.5435 1.7923 -0.3554 5.8826 1.2167 0.0027 -6.1338 4.7963 0.0500 -6.0378 -7.7200 0.1704 4.9444 -3.4197 -0.0564 2.7090 -0.0000 -0.0000 0.0000 -73.7346 13.8854 37.1711 28.3961 -39.4784 -10.3746 -0.0000 -0.0000 9.7261 -1.6842 2.8098 -0.0826 -7.1250 0.0000 -0.0000 -22.4438 32.1531 7.5739 -0.0000 -0.0000 0.0000 72.8168 -14.8910 39.2497 -29.9940 40.8882 -11.4057 0.0000 -0.0000 -1.2603 -23.5354 -18.7695 7.9776 7.1250 -0.0000 -0.0000 4.6479 -50.2607 -0.6038
-6.8455 17.6106 -0.4162 -27.5815 91.0908 -27.3858 0.0000 0.0000 0.0000 -13.8169 -1.4822 -26.0026 4.8593 13.2236 40.2114 -0.2689 -24.2219 -15.1982 0.1053 -2.0927 -5.7620 0.0000 0.0000 0.0000 18.4251 12.4300 -17.8033 -3.1173 -10.8826 31.8849 -0.4530 1.9616 -12.1867 -0.0906 -1.9417 5.3445 1.3333 -0.8580 22.4032 1.6766 -0.2549 5.8842 1.1001 0.0492 -6.0612 4.9880 0.2359 -6.5250 -7.6588 0.4401 6.0262 -3.4531 0.0680 3.1925 0.0000 0.0000 0.0000 -73.7460 14.5288 37.4972 27.7476 -38.8828 -9.9648 -0.0000 -0.0000 10.0974 -2.0731 2.7987 -0.1013 -7.1250 0.0000 -0.0000 -22.7346 32.1242 7.7043 0.0000 0.0000 0.0000 72.7677 -14.6731 39.8411 -31.6510 42.2672 -12.5055 0.0000 -0.0000 -2.7861 -22.8845 -18.9614 7.8095 7.1250 -0.0000 -0.0000 5.3389 -50.3560 -0.7065
-6.7859 17.6192 -0.4176 -44.5907 90.8148 -44.2464 0.0000 0.0000 0.0000 -14.0340 -1.6820 -25.6933 4.5207 12.8228 38.7089 -0.0948 -23.6146 -15.9843 0.1055 -2.0946 -5.7672 0.0000 0.0000 0.0000 18.3953 12.7824 -17.6357 -3.1153 -10.8794 31.8743 -0.4731 1.8669 -12.4820 -0.0886 -1.9194 5.2831 1.2728 -0.7572 22.2553 1.5554 -0.1568 5.8902 0.9760 0.0947 -5.9797 5.1248 0.4188 -6.9266 -7.8237 0.7423 7.3588 -3.1813 0.1777 3.3650 -0.0000 -0.0000 0.0000 -73.7420 15.1647 37.8510 27.1761 -38.3466 -9.6082 -0.0000 -0.0000 10.3946 -2.2448 2.7506 -0.1078 -7.1250 0.0000 -0.0000 -22.8523 32.0714 7.7822 -0.0000 -0.0000 0.0000 72.7219 -14.4750 40.4213 -33.4109 43.6435 -13.7048 0.0000 -0.0000 -4.2502 -22.0991 -19.1739 7.5961 7.1250 -0.0000 -0.0000 6.1695 -50.4498 -0.8314
-6.7277 17.6241 -0.4206 -74.1998 90.6497 -73.7180 0.0000 0.0000 0.0000 -14.2097 -1.9267 -25.3185 4.2073 12.4313 37.2754 0.0740 -22.9510 -16.7085 0.1060 -2.0994 -5.7804 0.0000 0.0000 0.0000 18.3739 13.1198 -17.4861 -3.1186 -10.8846 31.8917 -0.4942 1.8129 -12.7767 -0.0856 -1.8868 5.1929 1.2228 -0.6607 22.1132 1.4315 -0.0612 5.8991 0.8444 0.1392 -5.8977 5.3196 0.6010 -7.2837 -7.7623 1.0100 8.4294 -3.1894 0.3042 3.7648 -0.0000 0.0000 0.0000 -73.7264 15.7906 38.2301 26.6793 -37.8716 -9.3016 -0.0000 -0.0000 10.5894 -2.2429 2.6846 -0.1051 -7.1250 0.0000 -0.0000 -22.8350 32.0106 7.8119 -0.0000 0.0000 0.0000 72.6816 -14.2908 40.9817 -35.2509 44.9904 -14.9904 0.0000 -0.0000 -5.6080 -21.2500 -19.3562 7.3444 7.1250 -0.0000 -0.0000 7.0557 -50.5000 -0.9605
-6.6710 17.6259 -0.4253 -110.0340 90.7005 -109.4300 0.0000 0.0000 0.0000 -14.3354 -2.2251 -24.8895 3.9274 12.0631 35.9556 0.2329 -22.2335 -17.3487 0.1088 -2.1270 -5.8568 0.0000 0.0000 0.0000 18.3666 13.4403 -17.3709 -3.1336 -10.9083 31.9712 -0.5171 1.8183 -13.0785 -0.0821 -1.8478 5.0852 1.1865 -0.5694 21.9866 1.3104 0.0321 5.9099 0.7091 0.1828 -5.8212 5.5217 0.7768 -7.5600 -7.7078 1.2679 9.4408 -3.1997 0.4301 4.1349 -0.0000 0.0000 0.0000 -73.7102 16.4053 38.6176 26.2519 -37.4564 -9.0404 -0.0000 -0.0000 10.6792 -2.1128 2.6022 -0.0960 -7.1250 0.0000 -0.0000 -22.7173 31.9409 7.8070 -0.0000 0.0000 0.0000 72.6459 -14.1147 41.5216 -37.1343 46.2774 -16.3371 0.0000 -0.0000 -6.8044 -20.4043 -19.4515 7.0614 7.1250 -0.0000 -0.0000 7.9124 -50.4600 -1.0705
-6.6164 17.6242 -0.4317 -134.9350 90.9430 -134.2280 0.0000 0.0000 0.0000 -14.4086 -2.5809 -24.4115 3.6836 11.7271 34.7732 0.3765 -21.4718 -17.8818 0.1158 -2.1939 -6.0418 0.0000 0.0000 0.0000 18.3784 13.7363 -17.2875 -3.1594 -10.9487 32.1070 -0.5419 1.8899 -13.3838 -0.0776 -1.7974 4.9459 1.1630 -0.4856 21.8837 1.1977 0.1208 5.9238 0.5775 0.2244 -5.7533 5.7310 0.9452 -7.7603 -7.6730 1.5158 10.3817 -3.2164 0.5546 4.4725 0.0000 0.0000 0.0000 -73.7051 17.0034 38.9981 25.8888 -37.0987 -8.8205 -0.0000 -0.0000 10.6683 -1.9246 2.5327 -0.0851 -7.1250 0.0000 -0.0000 -22.5591 31.8856 7.7770 0.0000 0.0000 0.0000 72.6083 -13.9348 42.0469 -39.0241 47.4810 -17.7165 0.0000 -0.0000 -7.8144 -19.5715 -19.4600 6.7548 7.1250 -0.0000 -0.0000 8.7275 -50.3332 -1.1549
-6.5640 17.6188 -0.4396 -149.0230 91.2756 -148.2410 0.0000 0.0000 0.0000 -14.4363 -2.9749 -23.8932 3.4789 11.4326 33.7532 0.4947 -20.6906 -18.2576 0.1268 -2.2958 -6.3239 0.0000 0.0000 0.0000 18.4092 14.0002 -17.2216 -3.1947 -11.0037 32.2925 -0.5689 2.0286 -13.6957 -0.0728 -1.7402 4.7881 1.1451 -0.4104 21.8144 1.0967 0.2025 5.9424 0.4575 0.2632 -5.6972 5.9538 1.1026 -7.9024 -7.6732 1.7512 11.2617 -3.2459 0.6749 4.7832 0.0000 0.0000 0.0000 -73.7190 17.5830 39.3575 25.5848 -36.7957 -8.6377 -0.0000 -0.0000 10.5832 -1.7160 2.4710 -0.0740 -7.1250 0.0000 -0.0000 -22.3875 31.8383 7.7367 0.0000 0.0000 0.0000 72.5644 -13.7470 42.5613 -40.8932 48.5902 -19.1064 0.0000 -0.0000 -8.6489 -18.8234 -19.3371 6.4400 7.1250 -0.0000 -0.0000 9.4143 -50.0870 -1.1898
-6.5141 17.6100 -0.4486 -157.7900 91.6360 -156.9600 0.0000 0.0000 0.0000 -14.4152 -3.3942 -23.3514 3.3168 11.1911 32.9271 0.5824 -19.9153 -18.4543 0.1328 -2.3490 -6.4713 0.0000 0.0000 0.0000 18.4684 14.2289 -17.1660 -3.2378 -11.0703 32.5174 -0.5979 2.2281 -14.0138 -0.0673 -1.6743 4.6063 1.1403 -0.3464 21.7855 1.0095 0.2756 5.9667 0.3474 0.2983 -5.6556 6.1866 1.2488 -8.0011 -7.7058 1.9739 12.0832 -3.2872 0.7901 5.0700 -0.0000 -0.0000 0.0000 -73.7524 18.1407 39.6850 25.3368 -36.5462 -8.4896 -0.0000 -0.0000 10.4549 -1.5184 2.4182 -0.0641 -7.1250 0.0000 -0.0000 -22.2261 31.7985 7.6958 -0.0000 -0.0000 0.0000 72.5169 -13.5459 43.0698 -42.6948 49.5878 -20.4681 0.0000 -0.0000 -9.3096 -18.2053 -19.0761 6.1350 7.1250 -0.0000 -0.0000 9.9264 -49.7229 -1.1660
-6.4670 17.5987 -0.4587 -164.0620 92.0093 -163.2120 0.0000 0.0000 0.0000 -14.3497 -3.8088 -22.8135 3.2000 11.0119 32.3202 0.6444 -19.1995 -18.5275 0.1328 -2.3493 -6.4719 0.0000 0.0000 0.0000 18.5601 14.4262 -17.1166 -3.2860 -11.1442 32.7676 -0.6283 2.4736 -14.3337 -0.0604 -1.5860 4.3629 1.1427 -0.2929 21.7982 0.9407 0.3401 5.9986 0.2552 0.3298 -5.6270 6.4155 1.3850 -8.0674 -7.7668 2.1866 12.8425 -3.3368 0.9004 5.3336 0.0000 0.0000 0.0000 -73.8172 18.6728 39.9654 25.1400 -36.3467 -8.3727 -0.0000 -0.0000 10.3042 -1.3555 2.3956 -0.0567 -7.1250 0.0000 -0.0000 -22.0981 31.7850 7.6528 0.0000 0.0000 0.0000 72.4564 -13.3234 43.5841 -44.4025 50.4724 -21.7769 0.0000 -0.0000 -9.8304 -17.7409 -18.7202 5.8626 7.1250 -0.0000 -0.0000 10.2572 -49.2892 -1.0953
-6.4229 17.5856 -0.4694 -168.8820 92.3877 -168.0370 0.0000 0.0000 0.0000 -14.2499 -4.1832 -22.3159 3.1287 10.9006 31.9452 0.6824 -18.6239 -18.5185 0.1292 -2.3167 -6.3818 0.0000 0.0000 0.0000 18.6817 14.5939 -17.0642 -3.3362 -11.2203 33.0266 -0.6594 2.7511 -14.6502 -0.0527 -1.4820 4.0762 1.1487 -0.2488 21.8538 0.8885 0.3968 6.0408 0.1808 0.3581 -5.6093 6.6404 1.5098 -8.1094 -7.8544 2.3865 13.5313 -3.3944 1.0041 5.5722 -0.0000 -0.0000 0.0000 -73.9123 19.1703 40.1938 24.9874 -36.1911 -8.2825 -0.0000 -0.0000 10.1498 -1.2330 2.3950 -0.0515 -7.1250 0.0000 -0.0000 -22.0055 31.7900 7.6132 -0.0000 -0.0000 0.0000 72.3877 -13.0822 44.1077 -45.9850 51.2420 -23.0043 0.0000 -0.0000 -10.2380 -17.4629 -18.3100 5.6442 7.1250 -0.0000 -0.0000 10.3917 -48.8306 -0.9916
